<svg width="121" height="29" viewBox="0 0 121 29" fill="none" xmlns="http://www.w3.org/2000/svg">
<path d="M17.8148 0H18.4673C18.5841 3.42764 15.7768 6.94389 12.2042 6.88347C12.1437 3.59278 14.6087 0.632361 17.8148 0Z" fill="white"/>
<path d="M97.6494 1.75984C99.1437 0.764976 101.327 2.28345 101.009 4.0315C100.952 5.27609 99.756 5.9447 98.6765 6.2065C98.0965 5.95275 97.4319 5.80373 97.009 5.29623C96.0061 4.29331 96.3565 2.35192 97.6494 1.75984Z" fill="white"/>
<path d="M28.416 1.93323C29.9989 1.93725 31.5818 1.94128 33.1688 1.92114C36.1493 9.03823 39.0171 16.2036 41.9373 23.3449C44.938 16.2399 47.7534 9.05836 50.7138 1.93725C52.3007 1.93323 53.8836 1.93323 55.4666 1.94128C55.4867 10.8104 55.4706 19.6836 55.4746 28.5528C54.226 28.5488 52.9774 28.5448 51.7248 28.581C51.6482 22.0963 51.7852 15.6116 51.6563 9.12684C51.3784 9.63031 51.1206 10.1418 50.891 10.6695C48.4582 16.6346 45.9811 22.5836 43.5363 28.5448C42.4649 28.5568 41.3895 28.5609 40.3181 28.4964C37.7564 21.9553 34.945 15.5109 32.3511 8.98586C32.186 15.4948 32.3189 22.0117 32.2827 28.5246C30.9898 28.5568 29.7009 28.5528 28.408 28.5568C28.408 19.6796 28.3959 10.8064 28.416 1.93323Z" fill="white"/>
<path d="M6.57333 6.99214C8.66778 6.62159 10.5044 7.88631 12.4942 8.22867C14.3751 7.82992 16.1232 6.73839 18.1049 6.90756C20.3121 6.85923 22.3582 7.99909 23.7518 9.6545C21.6332 11.028 20.0986 13.4648 20.5578 16.0587C20.7068 18.4512 22.5394 20.2435 24.5292 21.3351C23.4578 24.0337 21.9876 26.8088 19.5347 28.4884C17.0697 30.0512 14.6047 27.2237 12.039 27.8721C10.7622 28.1178 9.57403 28.6737 8.31736 28.9999H7.30236C6.46861 28.6737 5.67111 28.2185 5.04278 27.5701C2.23944 24.6499 0.451111 20.7833 0 16.7635V14.6046C0.221528 11.0038 2.87583 7.4795 6.57333 6.99214Z" fill="white"/>
<path d="M81.1114 10.243C83.9752 8.47075 87.8217 8.39422 90.7982 9.94894C92.6429 10.9237 93.7586 12.9013 93.8754 14.9595C92.651 14.9676 91.4306 14.9676 90.2102 14.9595C89.8839 14.2345 89.6866 13.3967 89.0663 12.8489C87.9667 11.8662 86.3677 11.7494 84.9821 12.0152C83.81 12.277 82.505 13.1913 82.65 14.5406C82.5332 15.5999 83.4798 16.3088 84.3618 16.631C86.561 17.4245 88.9495 17.5735 91.1124 18.4798C92.2925 18.9671 93.4485 19.7526 93.9238 20.9891C94.9227 23.1641 94.0527 25.8949 92.1677 27.2926C90.8707 28.2794 89.2757 28.7788 87.6848 29.0003H84.7686C82.932 28.666 81.0309 28.0216 79.7581 26.5877C78.7793 25.5969 78.4289 24.2194 78.155 22.9023C79.4681 22.8902 80.7811 22.9184 82.0942 23.0271C82.5413 24.1871 83.2461 25.4277 84.5592 25.7298C86.2549 26.0923 88.3816 26.1809 89.7107 24.8719C90.6854 23.9213 90.4478 22.137 89.2032 21.5369C86.275 20.1634 82.5574 20.5178 80.0924 18.1616C77.7764 15.9826 78.4893 11.8621 81.1114 10.243Z" fill="white"/>
<path d="M107.312 10.1948C110.172 8.48302 113.922 8.39441 116.878 9.91691C119.105 11.0689 120.559 13.413 120.829 15.882C119.577 15.9022 118.328 15.9102 117.075 15.9223C116.632 14.9355 116.29 13.8118 115.376 13.1432C114.095 12.1362 112.307 12.0315 110.78 12.4383C108.847 13.0586 107.743 15.0362 107.409 16.9333C107.115 19.2694 107.155 21.8794 108.641 23.8369C110.148 25.9072 113.358 26.2375 115.376 24.7552C116.282 24.1068 116.636 23.0032 117.071 22.0284C118.324 22.0365 119.577 22.0325 120.829 22.0486C120.584 25.875 117.104 28.7226 113.418 29.0005H111.308C109.153 28.7266 106.998 27.8405 105.556 26.169C103.739 24.0826 103.075 21.2309 103.208 18.5162C103.155 15.3222 104.529 11.9268 107.312 10.1948Z" fill="white"/>
<path d="M59.0714 9.18286C60.3965 9.18286 61.7216 9.18286 63.0468 9.1748C63.1676 13.5087 62.9139 17.8547 63.1757 22.1805C63.3408 25.5316 67.8398 26.5224 70.1357 24.6254C71.3641 23.6587 71.9159 22.0556 71.8757 20.5291C71.8918 16.747 71.8515 12.9609 71.8918 9.17883C73.225 9.18286 74.5582 9.18286 75.8913 9.17883C75.8994 15.6797 75.9155 22.1765 75.8913 28.6733C74.5904 28.6813 73.2934 28.6451 72.0005 28.5122C72.0005 27.4609 71.9965 26.4097 72.0005 25.3584C70.9976 27.3884 69.0159 28.8344 66.7282 28.9995H65.0043C63.2522 28.7498 61.484 27.9765 60.4368 26.5023C59.3291 25.0362 59.0432 23.1431 59.0633 21.3508C59.0713 17.2948 59.0633 13.2388 59.0714 9.18286Z" fill="white"/>
<path d="M96.7513 9.17932C98.02 9.18737 99.2888 9.1914 100.553 9.15112C100.662 9.71904 100.755 10.291 100.767 10.871C100.743 16.7596 100.771 22.6442 100.751 28.5328C99.4136 28.557 98.0764 28.5529 96.7392 28.5529C96.7432 22.0964 96.7191 15.6399 96.7513 9.17932Z" fill="white"/>
</svg>
