<svg width="132" height="26" viewBox="0 0 132 26" fill="none" xmlns="http://www.w3.org/2000/svg">
<path d="M30.791 17.2563C30.791 22.7092 34.0398 25.9728 38.8669 25.9728C41.2739 25.9728 43.2995 25.2793 44.4306 23.4571V25.9728H48.8368V0H44.2596V11.0418C43.2205 9.21966 41.3002 8.40376 38.8932 8.40376C34.1845 8.39017 30.791 11.7218 30.791 17.2563ZM44.4043 17.2563C44.4043 20.3703 42.3524 22.3149 39.8928 22.3149C37.3412 22.3149 35.3814 20.3703 35.3814 17.2563C35.3814 14.0879 37.3543 12.1025 39.8928 12.1025C42.3524 12.1025 44.4043 14.1151 44.4043 17.2563Z" fill="white"/>
<path d="M63.0815 19.2692C62.5554 21.2818 61.227 22.288 59.1356 22.288C56.7024 22.288 54.7031 20.765 54.6505 18.0726H66.1856C66.3303 17.4062 66.3961 16.6991 66.3961 15.924C66.3961 11.0966 63.2131 8.37695 58.5175 8.37695C53.5062 8.37695 50.0601 12.0621 50.0601 17.0663C50.0601 22.6416 53.8613 25.9868 59.1225 25.9868C63.0947 25.9868 65.791 24.2734 66.9748 20.8602L63.0815 19.2692ZM54.6505 14.9177C55.0845 12.9732 56.6497 11.8309 58.5306 11.8309C60.5825 11.8309 61.9767 12.9732 61.9767 14.7682L61.9504 14.9177H54.6505V14.9177Z" fill="white"/>
<path d="M80.0619 19.2692C79.5358 21.2818 78.2074 22.288 76.1161 22.288C73.6828 22.288 71.6835 20.765 71.6309 18.0726H83.166C83.3107 17.4062 83.3765 16.6991 83.3765 15.924C83.3765 11.0966 80.1935 8.37695 75.4979 8.37695C70.4866 8.37695 67.0405 12.0621 67.0405 17.0663C67.0405 22.6416 70.8417 25.9868 76.1029 25.9868C80.0751 25.9868 82.7714 24.2734 83.9552 20.8602L80.0619 19.2692ZM71.6309 14.9177C72.0649 12.9732 73.6301 11.8309 75.511 11.8309C77.5629 11.8309 78.9571 12.9732 78.9571 14.7682L78.9308 14.9177H71.6309V14.9177Z" fill="white"/>
<path d="M99.5283 25.9997V21.7163H89.9135L99.2653 12.3062V8.38989H84.4682V12.4694H93.5043L84.1788 21.9202V25.9997H99.5283Z" fill="white"/>
<path d="M112.905 19.2692C112.379 21.2818 111.05 22.288 108.959 22.288C106.526 22.288 104.526 20.765 104.474 18.0726H116.009C116.154 17.4062 116.219 16.6991 116.219 15.924C116.219 11.0966 113.036 8.37695 108.341 8.37695C103.33 8.37695 99.8835 12.0621 99.8835 17.0663C99.8835 22.6416 103.685 25.9868 108.946 25.9868C112.918 25.9868 115.614 24.2734 116.798 20.8602L112.905 19.2692ZM104.474 14.9177C104.908 12.9732 106.473 11.8309 108.354 11.8309C110.406 11.8309 111.8 12.9732 111.8 14.7682L111.774 14.9177H104.474V14.9177Z" fill="white"/>
<path d="M26.0954 8.38989H20.4528V11.8031H26.0954V8.38989Z" fill="#40AB5D"/>
<path d="M26.0954 13.1226H20.4528V16.5357H26.0954V13.1226Z" fill="url(#paint0_linear)"/>
<path d="M26.0954 17.8552H20.4528V21.2684H26.0954V17.8552Z" fill="url(#paint1_linear)"/>
<path d="M5.64261 22.5867H0V25.9998H5.64261V22.5867Z" fill="url(#paint2_linear)"/>
<path d="M12.4558 22.5867H6.81323V25.9998H12.4558V22.5867Z" fill="url(#paint3_linear)"/>
<path d="M19.2822 22.5867H13.6396V25.9998H19.2822V22.5867Z" fill="url(#paint4_linear)"/>
<path d="M26.0954 22.5867H20.4528V25.9998H26.0954V22.5867Z" fill="url(#paint5_linear)"/>
<path d="M19.2822 17.8552H13.6396V21.2684H19.2822V17.8552Z" fill="url(#paint6_linear)"/>
<path d="M12.4558 17.8552H6.81323V21.2684H12.4558V17.8552Z" fill="url(#paint7_linear)"/>
<path d="M12.4558 13.1226H6.81323V16.5357H12.4558V13.1226Z" fill="url(#paint8_linear)"/>
<path d="M127.071 14.4692C127.071 14.646 127.071 14.9724 127.071 14.9724H131.529C131.529 14.9724 131.529 14.1021 131.529 13.6261C131.529 10.6073 129.701 8.41797 126.637 8.41797C124.664 8.41797 123.269 9.41065 122.546 11.056V8.41797H117.942V26.0006H122.546V14.6732C122.546 12.8782 123.48 11.8855 124.914 11.8855C126.229 11.8991 127.071 13.1774 127.071 14.4692Z" fill="white"/>
<defs>
<linearGradient id="paint0_linear" x1="23.3018" y1="16.5652" x2="23.2451" y2="13.0725" gradientUnits="userSpaceOnUse">
<stop stop-color="#358C7B"/>
<stop offset="0.5256" stop-color="#33A65E"/>
</linearGradient>
<linearGradient id="paint1_linear" x1="20.3699" y1="21.0932" x2="26.2592" y2="18.1907" gradientUnits="userSpaceOnUse">
<stop stop-color="#222B90"/>
<stop offset="1" stop-color="#367B99"/>
</linearGradient>
<linearGradient id="paint2_linear" x1="0.00103192" y1="24.2946" x2="5.63892" y2="24.2946" gradientUnits="userSpaceOnUse">
<stop stop-color="#FF9900"/>
<stop offset="1" stop-color="#FF8000"/>
</linearGradient>
<linearGradient id="paint3_linear" x1="6.81952" y1="24.2946" x2="12.4574" y2="24.2946" gradientUnits="userSpaceOnUse">
<stop stop-color="#FF8000"/>
<stop offset="1" stop-color="#CC1953"/>
</linearGradient>
<linearGradient id="paint4_linear" x1="13.638" y1="24.2946" x2="19.2759" y2="24.2946" gradientUnits="userSpaceOnUse">
<stop stop-color="#CC1953"/>
<stop offset="1" stop-color="#241284"/>
</linearGradient>
<linearGradient id="paint5_linear" x1="20.4498" y1="24.2946" x2="26.0877" y2="24.2946" gradientUnits="userSpaceOnUse">
<stop stop-color="#222B90"/>
<stop offset="1" stop-color="#3559A6"/>
</linearGradient>
<linearGradient id="paint6_linear" x1="13.4154" y1="20.4821" x2="19.5294" y2="18.7528" gradientUnits="userSpaceOnUse">
<stop stop-color="#CC1953"/>
<stop offset="1" stop-color="#241284"/>
</linearGradient>
<linearGradient id="paint7_linear" x1="6.61884" y1="18.4263" x2="12.704" y2="20.5686" gradientUnits="userSpaceOnUse">
<stop offset="0.00266984" stop-color="#FFCC00"/>
<stop offset="0.9999" stop-color="#CE1938"/>
</linearGradient>
<linearGradient id="paint8_linear" x1="7.29339" y1="12.5921" x2="12.1268" y2="16.9061" gradientUnits="userSpaceOnUse">
<stop offset="0.00266984" stop-color="#FFD100"/>
<stop offset="1" stop-color="#FD5A22"/>
</linearGradient>
</defs>
</svg>
