<svg width="34" height="34" viewBox="0 0 34 34" fill="none" xmlns="http://www.w3.org/2000/svg">
<path d="M2.21737 2.36052C-0.44626 5.12725 0.0988955 8.06629 0.0988955 16.995C0.0988955 24.4096 -1.19479 31.8427 5.57587 33.5925C7.69011 34.1363 26.4231 34.1363 28.5345 33.5897C31.3535 32.8624 33.6471 30.5758 33.9607 26.5889C34.0044 26.0324 34.0044 7.96742 33.9593 7.39967C33.6259 3.15283 31.0117 0.705279 27.5671 0.209555C26.7776 0.0951571 26.6194 0.0612614 22.5689 0.0541998C8.20137 0.0612614 5.0519 -0.578519 2.21737 2.36052V2.36052Z" fill="url(#paint0_linear)"/>
<path d="M17.0439 4.48742C11.9158 4.48742 7.04612 4.03124 5.18609 8.80488C4.41779 10.7765 4.52936 13.337 4.52936 17.0034C4.52936 20.2207 4.42626 23.2444 5.18609 25.2005C7.04188 29.977 11.9511 29.5194 17.0411 29.5194C21.9517 29.5194 27.0149 30.0306 28.8975 25.2005C29.6672 23.2091 29.5542 20.6867 29.5542 17.0034C29.5542 12.1139 29.824 8.95741 27.4527 6.58754C25.0518 4.1866 21.8049 4.48742 17.0383 4.48742H17.0439ZM15.9225 6.74289C26.6194 6.72595 27.9809 5.53678 27.2296 22.0567C26.9626 27.8994 22.5138 27.2582 17.0453 27.2582C7.07436 27.2582 6.78766 26.973 6.78766 16.9977C6.78766 6.90672 7.57856 6.74854 15.9225 6.74007V6.74289ZM23.7242 8.82042C22.8952 8.82042 22.2229 9.49268 22.2229 10.3217C22.2229 11.1507 22.8952 11.823 23.7242 11.823C24.5532 11.823 25.2255 11.1507 25.2255 10.3217C25.2255 9.49268 24.5532 8.82042 23.7242 8.82042V8.82042ZM17.0439 10.5759C13.4948 10.5759 10.6179 13.4542 10.6179 17.0034C10.6179 20.5526 13.4948 23.4294 17.0439 23.4294C20.5931 23.4294 23.4686 20.5526 23.4686 17.0034C23.4686 13.4542 20.5931 10.5759 17.0439 10.5759V10.5759ZM17.0439 12.8314C22.559 12.8314 22.5661 21.1754 17.0439 21.1754C11.5302 21.1754 11.5218 12.8314 17.0439 12.8314Z" fill="white"/>
<defs>
<linearGradient id="paint0_linear" x1="2.28237" y1="31.7849" x2="33.7848" y2="4.51992" gradientUnits="userSpaceOnUse">
<stop stop-color="#FFDD55"/>
<stop offset="0.5" stop-color="#FF543E"/>
<stop offset="1" stop-color="#C837AB"/>
</linearGradient>
</defs>
</svg>
