<svg width="120" height="36" viewBox="0 0 120 36" fill="none" xmlns="http://www.w3.org/2000/svg">
<path d="M17.9955 0C8.05706 0 0 8.05684 0 17.9953C0 27.9341 8.05706 35.9903 17.9955 35.9903C27.935 35.9903 35.9912 27.9341 35.9912 17.9953C35.9912 8.05749 27.935 0.000859553 17.9953 0.000859553L17.9955 0V0ZM26.2481 25.9543C25.9258 26.483 25.2338 26.6506 24.7052 26.3261C20.48 23.7453 15.1611 23.1608 8.89706 24.5919C8.29344 24.7295 7.69175 24.3513 7.55422 23.7474C7.41605 23.1436 7.79275 22.5419 8.39787 22.4044C15.2528 20.8382 21.1329 21.5126 25.8763 24.4114C26.405 24.7359 26.5726 25.4257 26.2481 25.9543V25.9543ZM28.4507 21.0544C28.0446 21.7146 27.1807 21.923 26.521 21.5169C21.6838 18.5437 14.3103 17.6826 8.58891 19.4193C7.8469 19.6435 7.0632 19.2253 6.83799 18.4846C6.61451 17.7426 7.0329 16.9604 7.77362 16.7347C14.3091 14.7517 22.4338 15.7123 27.9887 19.1258C28.6484 19.5319 28.8568 20.3958 28.4507 21.0546V21.0544ZM28.6398 15.9521C22.8399 12.5072 13.2709 12.1905 7.73344 13.8711C6.84423 14.1408 5.90387 13.6388 5.6344 12.7496C5.36493 11.86 5.86648 10.9202 6.75634 10.6499C13.113 8.72021 23.6802 9.09304 30.3576 13.0571C31.1592 13.5318 31.4213 14.5648 30.9464 15.3635C30.4737 16.1633 29.4379 16.427 28.6407 15.9521H28.6398ZM48.9597 16.6122C45.8524 15.8713 45.3002 15.3513 45.3002 14.2586C45.3002 13.2262 46.2715 12.5315 47.7177 12.5315C49.1188 12.5315 50.5069 13.059 51.9639 14.1451C52.0069 14.178 52.0627 14.1911 52.1165 14.1825C52.1723 14.1743 52.2196 14.1444 52.2518 14.0995L53.769 11.961C53.8313 11.8728 53.8141 11.7514 53.7303 11.6842C51.9961 10.2932 50.0449 9.61694 47.7628 9.61694C44.4084 9.61694 42.0639 11.6302 42.0639 14.5108C42.0639 17.5999 44.086 18.6937 47.5801 19.538C50.5521 20.2228 51.0549 20.7966 51.0549 21.822C51.0549 22.9588 50.0406 23.6658 48.4075 23.6658C46.5938 23.6658 45.1132 23.0533 43.4586 21.6222C43.4177 21.5856 43.3619 21.5706 43.3103 21.5727C43.2544 21.577 43.205 21.6028 43.1706 21.6437L41.4687 23.6679C41.3978 23.7539 41.4064 23.8785 41.488 23.9516C43.4134 25.6707 45.7815 26.5775 48.3387 26.5775C51.9531 26.5775 54.289 24.6027 54.289 21.5448C54.2954 18.9646 52.7504 17.5356 48.9662 16.615L48.9597 16.6122V16.6122ZM62.4677 13.5479C60.9011 13.5479 59.6161 14.1651 58.5545 15.4297V14.0063C58.5545 13.8939 58.4643 13.8023 58.3525 13.8023H55.5697C55.458 13.8023 55.3677 13.8939 55.3677 14.0063V29.8223C55.3677 29.9341 55.458 30.0265 55.5697 30.0265H58.3525C58.4643 30.0265 58.5545 29.9341 58.5545 29.8223V24.8305C59.6161 26.0188 60.9011 26.6011 62.4677 26.6011C65.3794 26.6011 68.3277 24.3599 68.3277 20.0752C68.332 15.7896 65.3837 13.5477 62.4698 13.5477L62.4677 13.5479ZM65.0915 20.0752C65.0915 22.2561 63.7484 23.7797 61.823 23.7797C59.9212 23.7797 58.4858 22.1873 58.4858 20.0752C58.4858 17.9628 59.9212 16.3709 61.823 16.3709C63.7162 16.3707 65.0915 17.9282 65.0915 20.075V20.0752ZM75.8811 13.5479C72.1313 13.5479 69.1937 16.4352 69.1937 20.1218C69.1937 23.7689 72.1119 26.6248 75.8359 26.6248C79.5987 26.6248 82.5448 23.7474 82.5448 20.0752C82.5448 16.4154 79.618 13.5483 75.8811 13.5483V13.5479V13.5479ZM75.8811 23.8011C73.8869 23.8011 72.3827 22.1981 72.3827 20.0741C72.3827 17.9405 73.8353 16.3922 75.8359 16.3922C77.843 16.3922 79.3558 17.9946 79.3558 20.1207C79.3558 22.2539 77.8946 23.8011 75.8811 23.8011V23.8011ZM90.5516 13.8023H87.4894V10.6723C87.4894 10.5601 87.3991 10.4685 87.2874 10.4685H84.5046C84.3928 10.4685 84.3004 10.5601 84.3004 10.6723V13.8023H82.9638C82.8521 13.8023 82.7618 13.8939 82.7618 14.0063V16.3973C82.7618 16.5095 82.8521 16.6013 82.9638 16.6013H84.3004V22.789C84.3004 25.2882 85.5446 26.556 88.0008 26.556C88.9979 26.556 89.8252 26.3497 90.6053 25.9071C90.6698 25.8727 90.7084 25.8039 90.7084 25.7308V23.453C90.7084 23.3843 90.6719 23.3176 90.6117 23.2811C90.5516 23.2424 90.4764 23.2403 90.414 23.2725C89.879 23.5411 89.3611 23.6658 88.7809 23.6658C87.8891 23.6658 87.4894 23.2596 87.4894 22.3528V16.6023H90.5516C90.6633 16.6023 90.7536 16.5108 90.7536 16.3984V14.0076C90.7579 13.8952 90.6676 13.8036 90.5537 13.8036L90.5516 13.8023V13.8023ZM101.219 13.8146V13.4302C101.219 12.2992 101.653 11.7948 102.624 11.7948C103.204 11.7948 103.671 11.91 104.193 12.0841C104.257 12.1043 104.324 12.0942 104.375 12.0557C104.429 12.0173 104.459 11.9556 104.459 11.8903V9.54581C104.459 9.4562 104.403 9.37691 104.315 9.35048C103.765 9.18652 103.06 9.01826 102.003 9.01826C99.4351 9.01826 98.0748 10.4653 98.0748 13.2015V13.7903H96.7382C96.6265 13.7903 96.5341 13.8819 96.5341 13.994V16.3973C96.5341 16.5095 96.6265 16.6013 96.7382 16.6013H98.0748V26.1434C98.0748 26.2573 98.1672 26.3476 98.279 26.3476H101.06C101.174 26.3476 101.264 26.2573 101.264 26.1434V16.6019H103.862L107.842 26.1434C107.39 27.1448 106.945 27.3447 106.339 27.3447C105.85 27.3447 105.332 27.1985 104.805 26.9084C104.756 26.8827 104.696 26.8784 104.644 26.8934C104.59 26.9127 104.545 26.9514 104.524 27.003L103.58 29.0724C103.535 29.1712 103.574 29.2851 103.668 29.3367C104.653 29.8696 105.54 30.0974 106.638 30.0974C108.693 30.0974 109.829 29.139 110.829 26.5646L115.655 14.0931C115.681 14.0303 115.672 13.9594 115.633 13.9038C115.597 13.8485 115.535 13.8152 115.468 13.8152H112.571C112.483 13.8152 112.406 13.8705 112.378 13.9519L109.41 22.4258L106.161 13.9463C106.131 13.8675 106.056 13.8152 105.972 13.8152H101.219V13.8146V13.8146ZM95.0342 13.8023H92.2513C92.1396 13.8023 92.0472 13.8939 92.0472 14.0063V26.1434C92.0472 26.2573 92.1396 26.3476 92.2513 26.3476H95.0342C95.1459 26.3476 95.2383 26.2573 95.2383 26.1434V14.0071C95.2383 13.8947 95.148 13.8032 95.0342 13.8032V13.8023ZM93.6589 8.2756C92.5565 8.2756 91.6625 9.16782 91.6625 10.27C91.6625 11.3728 92.5565 12.2661 93.6589 12.2661C94.7613 12.2661 95.653 11.3728 95.653 10.27C95.653 9.16804 94.7591 8.2756 93.6589 8.2756ZM118.032 17.7049C116.931 17.7049 116.074 16.8207 116.074 15.7469C116.074 14.6731 116.942 13.7787 118.042 13.7787C119.143 13.7787 120 14.6628 120 15.7357C120 16.8095 119.132 17.7049 118.032 17.7049ZM118.042 13.9734C117.039 13.9734 116.28 14.7706 116.28 15.7469C116.28 16.7227 117.035 17.5092 118.032 17.5092C119.035 17.5092 119.794 16.7126 119.794 15.7357C119.794 14.7599 119.039 13.9734 118.042 13.9734V13.9734ZM118.476 15.9371L119.031 16.7124H118.562L118.064 16.0011H117.636V16.7124H117.245V14.6572H118.161C118.64 14.6572 118.953 14.9015 118.953 15.3128C118.956 15.6497 118.76 15.8556 118.479 15.9371H118.476ZM118.146 15.0098H117.636V15.6598H118.146C118.399 15.6598 118.552 15.5354 118.552 15.3345C118.552 15.1231 118.399 15.0098 118.146 15.0098V15.0098Z" fill="#1ED760"/>
</svg>
