<svg width="36" height="29" viewBox="0 0 36 29" fill="none" xmlns="http://www.w3.org/2000/svg">
<path d="M11.2219 29C24.6879 29 32.052 17.844 32.052 8.16995C32.052 7.85309 32.0455 7.53765 32.0313 7.22364C33.4608 6.19026 34.7032 4.90068 35.6832 3.43266C34.3714 4.01573 32.9598 4.40824 31.4789 4.58522C32.9904 3.67887 34.1508 2.24514 34.6983 0.53596C33.2838 1.37451 31.7173 1.98398 30.0495 2.31303C28.7135 0.890033 26.8116 0 24.7056 0C20.6627 0 17.3842 3.27862 17.3842 7.31998C17.3842 7.89447 17.4484 8.45327 17.574 8.98928C11.4894 8.68311 6.09402 5.76993 2.48312 1.34025C1.85439 2.42216 1.49185 3.67891 1.49185 5.01988C1.49185 7.55982 2.78433 9.80208 4.74975 11.1138C3.54863 11.0767 2.42032 10.747 1.43414 10.1982C1.43306 10.2289 1.43306 10.2589 1.43306 10.2917C1.43306 13.8372 3.95659 16.7974 7.30645 17.4682C6.69127 17.6359 6.04402 17.7258 5.37599 17.7258C4.90498 17.7258 4.44608 17.6795 4.00005 17.5938C4.93209 20.5027 7.63477 22.6195 10.839 22.6786C8.33334 24.6426 5.17686 25.8123 1.7463 25.8123C1.1561 25.8123 0.573042 25.7788 0 25.711C3.24006 27.7878 7.08732 28.9995 11.2223 28.9995" fill="#1DA1F2"/>
</svg>
