<svg width="134" height="30" viewBox="0 0 134 30" fill="none" xmlns="http://www.w3.org/2000/svg">
<path d="M41.8304 4.69357C41.3363 2.85457 39.8816 1.39984 38.0426 0.905776C34.7214 0 21.3544 0 21.3544 0C21.3544 0 7.9873 0.0274477 4.66612 0.933224C2.82712 1.42728 1.37239 2.88202 0.878328 4.72102C-6.54406e-08 8.0422 0 14.9865 0 14.9865C0 14.9865 -6.54406e-08 21.9308 0.905776 25.2794C1.39984 27.1184 2.85457 28.5731 4.69357 29.0672C8.01475 29.973 21.3818 29.973 21.3818 29.973C21.3818 29.973 34.7489 29.973 38.0701 29.0672C39.9091 28.5731 41.3638 27.1184 41.8578 25.2794C42.7636 21.9582 42.7636 14.9865 42.7636 14.9865C42.7636 14.9865 42.7362 8.0422 41.8304 4.69357Z" fill="#FF0000"/>
<path d="M17.1 21.4095L28.1889 14.9867L17.1 8.56396V21.4095Z" fill="white"/>
<path d="M62.0319 27.2551C61.1811 26.6787 60.5772 25.8004 60.2204 24.5927C59.8636 23.385 59.6989 21.793 59.6989 19.7893V17.072C59.6989 15.0683 59.891 13.4215 60.3027 12.2138C60.7145 10.9786 61.3458 10.1003 62.2241 9.55132C63.1024 9.00237 64.2278 8.70044 65.6276 8.70044C67 8.70044 68.1254 8.97492 68.9488 9.55132C69.7722 10.1277 70.4035 11.0061 70.7878 12.2138C71.172 13.4215 71.3642 15.0409 71.3642 17.0446V19.7619C71.3642 21.7656 71.172 23.3575 70.7878 24.5652C70.4035 25.773 69.7997 26.6513 68.9488 27.2277C68.0979 27.7766 66.9451 28.0786 65.5178 28.0786C64.0356 28.106 62.8828 27.8041 62.0319 27.2551ZM66.7804 24.3182C67.0274 23.7144 67.1372 22.6988 67.1372 21.3264V15.48C67.1372 14.1351 67.0274 13.147 66.7804 12.5431C66.5334 11.9118 66.1217 11.6099 65.5453 11.6099C64.9689 11.6099 64.5846 11.9118 64.3376 12.5431C64.0905 13.1744 63.9807 14.1351 63.9807 15.48V21.3264C63.9807 22.6988 64.0905 23.7144 64.3101 24.3182C64.5297 24.9221 64.9414 25.224 65.5453 25.224C66.1217 25.224 66.5334 24.9221 66.7804 24.3182Z" fill="white"/>
<path d="M126.946 19.8442V20.8049C126.946 22.0126 126.973 22.9184 127.056 23.5222C127.138 24.1261 127.275 24.5652 127.495 24.8397C127.714 25.1142 128.071 25.2514 128.538 25.2514C129.169 25.2514 129.608 25.0044 129.828 24.5104C130.075 24.0163 130.185 23.1929 130.212 22.0675L133.863 22.2871C133.89 22.4518 133.89 22.6714 133.89 22.9458C133.89 24.675 133.424 25.9651 132.463 26.816C131.502 27.6668 130.185 28.106 128.456 28.106C126.37 28.106 124.915 27.4473 124.091 26.1572C123.268 24.8672 122.829 22.836 122.829 20.1187V16.7975C122.829 13.9979 123.268 11.9393 124.119 10.6492C124.997 9.35919 126.479 8.70044 128.565 8.70044C130.02 8.70044 131.118 8.97492 131.887 9.49643C132.655 10.0179 133.204 10.8414 133.533 11.9667C133.863 13.0921 134 14.6292 134 16.6054V19.8168H126.946V19.8442ZM127.495 11.9393C127.275 12.2138 127.138 12.6255 127.056 13.2293C126.973 13.8332 126.946 14.7389 126.946 15.9741V17.319H130.02V15.9741C130.02 14.7664 129.993 13.8606 129.91 13.2293C129.828 12.598 129.691 12.1589 129.471 11.9118C129.252 11.6648 128.922 11.5276 128.483 11.5276C128.016 11.555 127.687 11.6922 127.495 11.9393Z" fill="white"/>
<path d="M51.7665 19.4874L46.9631 2.14038H51.1626L52.837 9.99044C53.2761 11.9392 53.578 13.5861 53.7976 14.931H53.9074C54.0447 13.9429 54.374 12.3235 54.8681 10.0179L56.5973 2.14038H60.7968L55.9386 19.4599V27.7766H51.7939V19.4874H51.7665Z" fill="white"/>
<path d="M84.9783 9.05762V27.8044H81.6846L81.3277 25.4988H81.2454C80.3396 27.228 78.9947 28.1064 77.2106 28.1064C75.9754 28.1064 75.0422 27.6946 74.4658 26.8712C73.8619 26.0478 73.5875 24.7852 73.5875 23.056V9.05762H77.8144V22.8089C77.8144 23.6324 77.8968 24.2362 78.0889 24.5931C78.281 24.9499 78.583 25.1146 78.9947 25.1146C79.3515 25.1146 79.7083 25.0048 80.0377 24.7852C80.3671 24.5656 80.6141 24.2637 80.7788 23.9343V9.05762H84.9783Z" fill="white"/>
<path d="M106.635 9.05762V27.8044H103.341L102.984 25.4988H102.902C101.996 27.228 100.651 28.1064 98.8669 28.1064C97.6317 28.1064 96.6985 27.6946 96.1221 26.8712C95.5182 26.0478 95.2437 24.7852 95.2437 23.056V9.05762H99.4707V22.8089C99.4707 23.6324 99.553 24.2362 99.7452 24.5931C99.9373 24.9499 100.239 25.1146 100.651 25.1146C101.008 25.1146 101.365 25.0048 101.694 24.7852C102.023 24.5656 102.27 24.2637 102.435 23.9343V9.05762H106.635Z" fill="white"/>
<path d="M96.4514 5.5439H92.2519V27.804H88.1348V5.5439H83.9353V2.14038H96.424V5.5439H96.4514Z" fill="white"/>
<path d="M120.578 12.0492C120.331 10.869 119.919 10.0181 119.343 9.46916C118.766 8.94765 117.998 8.67317 116.982 8.67317C116.214 8.67317 115.473 8.89275 114.814 9.33192C114.128 9.77108 113.634 10.3475 113.249 11.0611H113.222V1.17993H109.16V27.7768H112.646L113.085 25.9927H113.167C113.496 26.624 113.991 27.1181 114.622 27.5023C115.281 27.8592 115.994 28.0513 116.79 28.0513C118.217 28.0513 119.261 27.3925 119.947 26.0751C120.605 24.7576 120.962 22.699 120.962 19.9268V16.9624C120.962 14.8764 120.825 13.2295 120.578 12.0492ZM116.708 19.7072C116.708 21.0796 116.653 22.15 116.543 22.9186C116.433 23.6871 116.241 24.2361 115.967 24.5654C115.692 24.8948 115.335 25.0595 114.896 25.0595C114.539 25.0595 114.238 24.9771 113.936 24.8125C113.634 24.6478 113.414 24.4007 113.222 24.0714V13.4216C113.359 12.9001 113.606 12.4884 113.963 12.159C114.32 11.8297 114.677 11.665 115.088 11.665C115.528 11.665 115.857 11.8297 116.077 12.159C116.324 12.4884 116.461 13.0648 116.571 13.8608C116.653 14.6568 116.708 15.7821 116.708 17.2643V19.7072Z" fill="white"/>
</svg>
